<svg xmlns="http://www.w3.org/2000/svg" xmlns:xl="http://www.w3.org/1999/xlink" width="640" height="560" version="1.1" viewBox="0 0 640 560"><defs><filter id="Shadow" x="0" y="0" filterUnits="userSpaceOnUse"><feGaussianBlur in="SourceAlpha" result="blur" stdDeviation="1.308"/><feOffset dx="0" dy="2" in="blur" result="offset"/><feFlood flood-color="#000" flood-opacity=".5" result="flood"/><feComposite in="flood" in2="offset" operator="in"/></filter><radialGradient id="Gradient" cx="0" cy="0" r="1" gradientUnits="userSpaceOnUse"><stop offset="0" stop-color="#fff"/><stop offset=".5" stop-color="#0432ff"/><stop offset="1" stop-color="#000"/></radialGradient><radialGradient id="Obj_Gradient" gradientTransform="translate(371.4501 268.73894) rotate(180) scale(17.168729)" xl:href="#Gradient"/><radialGradient id="Obj_Gradient_2" gradientTransform="translate(339.82694 268.73894) rotate(180) scale(17.168729)" xl:href="#Gradient"/><marker id="StickArrow_Marker" stroke-linejoin="miter" stroke-miterlimit="10" color="#000" markerHeight="6" markerUnits="strokeWidth" markerWidth="7" orient="auto" overflow="visible" viewBox="-1 -3 7 6"><g><path fill="none" stroke="currentColor" stroke-width="1" d="M 4.853333 0 L 0 0 M 0 -1.82 L 4.853333 0 L 0 1.82"/></g></marker><radialGradient id="Gradient_2" cx="0" cy="0" r="1" gradientUnits="userSpaceOnUse"><stop offset="0" stop-color="#fff"/><stop offset=".5" stop-color="#00fa00"/><stop offset="1" stop-color="#000"/></radialGradient><radialGradient id="Obj_Gradient_3" gradientTransform="translate(225.94837 268.73894) rotate(180) scale(17.168729)" xl:href="#Gradient_2"/><radialGradient id="Obj_Gradient_4" gradientTransform="translate(194.3252 268.73894) rotate(180) scale(17.168729)" xl:href="#Gradient_2"/><radialGradient id="Gradient_3" cx="0" cy="0" r="1" gradientUnits="userSpaceOnUse"><stop offset="0" stop-color="#fff"/><stop offset=".5" stop-color="#ff2600"/><stop offset="1" stop-color="#000"/></radialGradient><radialGradient id="Obj_Gradient_5" gradientTransform="translate(80.44664 268.73894) rotate(180) scale(17.168729)" xl:href="#Gradient_3"/><radialGradient id="Obj_Gradient_6" gradientTransform="translate(48.82347 268.73894) rotate(180) scale(17.168729)" xl:href="#Gradient_3"/><marker id="StickArrow_Marker_2" stroke-linejoin="miter" stroke-miterlimit="10" color="#000" markerHeight="12" markerUnits="strokeWidth" markerWidth="14" orient="auto" overflow="visible" viewBox="-1 -6 14 12"><g><path fill="none" stroke="currentColor" stroke-width="1" d="M 11.2 0 L 0 0 M 0 -4.2 L 11.2 0 L 0 4.2"/></g></marker><radialGradient id="Obj_Gradient_7" gradientTransform="translate(443.69503 503.5271) rotate(180) scale(39.497606)" xl:href="#Gradient"/><radialGradient id="Obj_Gradient_8" gradientTransform="translate(303.82532 504.3112) rotate(180) scale(39.497606)" xl:href="#Gradient_2"/><radialGradient id="Obj_Gradient_9" gradientTransform="translate(156.75012 503.9943) rotate(180) scale(39.497696)" xl:href="#Gradient_3"/><radialGradient id="Obj_Gradient_10" gradientTransform="translate(83.99909 503.9943) rotate(180) scale(39.497696)" xl:href="#Gradient_3"/><radialGradient id="Obj_Gradient_11" gradientTransform="translate(374.5762 504.3112) rotate(180) scale(39.497606)" xl:href="#Gradient"/><radialGradient id="Obj_Gradient_12" gradientTransform="translate(230.99906 504.1527) rotate(180) scale(39.497606)" xl:href="#Gradient_2"/><radialGradient id="Gradient_4" cx="0" cy="0" r="1" gradientUnits="userSpaceOnUse"><stop offset="0" stop-color="#fff"/><stop offset=".5" stop-color="#fff"/><stop offset="1" stop-color="#000"/></radialGradient><radialGradient id="Obj_Gradient_13" gradientTransform="translate(400.29106 145.76377) rotate(180) scale(30.891387)" xl:href="#Gradient_4"/><radialGradient id="Obj_Gradient_14" gradientTransform="translate(340.16667 145.68456) rotate(180) scale(30.891387)" xl:href="#Gradient_4"/><marker id="StickArrow_Marker_3" stroke-linejoin="miter" stroke-miterlimit="10" color="#000" markerHeight="8" markerUnits="strokeWidth" markerWidth="8" orient="auto" overflow="visible" viewBox="-1 -4 8 8"><g><path fill="none" stroke="currentColor" stroke-width="1" d="M 5.6 0 L 0 0 M 0 -2.1 L 5.6 0 L 0 2.1"/></g></marker><radialGradient id="Gradient_5" cx="0" cy="0" r="1" gradientUnits="userSpaceOnUse"><stop offset="0" stop-color="#fff"/><stop offset=".5" stop-color="#fff"/><stop offset="1" stop-color="#000"/></radialGradient><radialGradient id="Obj_Gradient_15" gradientTransform="translate(174.5 143.0971) scale(31.436886)" xl:href="#Gradient_5"/><radialGradient id="Gradient_6" cx="0" cy="0" r="1" gradientUnits="userSpaceOnUse"><stop offset="0" stop-color="#fff"/><stop offset=".5" stop-color="#0432ff"/><stop offset="1" stop-color="#000"/></radialGradient><radialGradient id="Obj_Gradient_16" gradientTransform="translate(343.50545 13.617658) scale(40.19508)" xl:href="#Gradient_6"/><radialGradient id="Gradient_7" cx="0" cy="0" r="1" gradientUnits="userSpaceOnUse"><stop offset="0" stop-color="#fff"/><stop offset=".5" stop-color="#00fa00"/><stop offset="1" stop-color="#000"/></radialGradient><radialGradient id="Obj_Gradient_17" gradientTransform="translate(199.35466 13.617658) scale(40.19508)" xl:href="#Gradient_7"/><radialGradient id="Gradient_8" cx="0" cy="0" r="1" gradientUnits="userSpaceOnUse"><stop offset="0" stop-color="#fff"/><stop offset=".5" stop-color="#ff2600"/><stop offset="1" stop-color="#000"/></radialGradient><radialGradient id="Obj_Gradient_18" gradientTransform="translate(55.203854 13.617658) scale(40.19508)" xl:href="#Gradient_8"/><marker id="FilledArrow_Marker" stroke-linejoin="miter" stroke-miterlimit="10" color="#000" markerHeight="8" markerUnits="strokeWidth" markerWidth="10" orient="auto" overflow="visible" viewBox="-1 -4 10 8"><g><path fill="currentColor" stroke="currentColor" stroke-width="1" d="M 7.466667 0 L 0 -2.8 L 0 2.8 Z"/></g></marker><radialGradient id="Obj_Gradient_19" gradientTransform="translate(55.203854 13.617658) scale(40.19508)" xl:href="#Gradient_8"/><radialGradient id="Obj_Gradient_20" gradientTransform="translate(199.35466 13.617658) scale(40.19508)" xl:href="#Gradient_7"/><radialGradient id="Obj_Gradient_21" gradientTransform="translate(343.50545 13.617658) scale(40.19508)" xl:href="#Gradient_6"/><font-face x-height="532.227" ascent="770.019" cap-height="719.727" descent="-229.98" font-family="Helvetica" font-size="24" font-weight="700" slope="0" underline-position="-75.684" underline-thickness="49.316" units-per-em="1000"><font-face-src><font-face-name name="Helvetica-Bold"/></font-face-src></font-face><radialGradient id="Obj_Gradient_22" gradientTransform="translate(174.5 143.0971) scale(31.436886)" xl:href="#Gradient_5"/><radialGradient id="Obj_Gradient_23" gradientTransform="translate(340.16667 145.68456) rotate(180) scale(30.891387)" xl:href="#Gradient_4"/><radialGradient id="Obj_Gradient_24" gradientTransform="translate(400.29106 145.76377) rotate(180) scale(30.891387)" xl:href="#Gradient_4"/><marker id="Arrow_Marker" stroke-linejoin="miter" stroke-miterlimit="10" color="#000" markerHeight="8" markerUnits="strokeWidth" markerWidth="8" orient="auto" overflow="visible" viewBox="-1 -4 8 8"><g><path fill="none" stroke="currentColor" stroke-width="1" d="M 5.6 0 L 0 -2.1 L 0 2.1 Z"/></g></marker><radialGradient id="Obj_Gradient_25" gradientTransform="translate(230.99906 504.1527) rotate(180) scale(39.497606)" xl:href="#Gradient_2"/><radialGradient id="Obj_Gradient_26" gradientTransform="translate(374.5762 504.3112) rotate(180) scale(39.497606)" xl:href="#Gradient"/><radialGradient id="Obj_Gradient_27" gradientTransform="translate(83.99909 503.9943) rotate(180) scale(39.497696)" xl:href="#Gradient_3"/><radialGradient id="Obj_Gradient_28" gradientTransform="translate(156.75012 503.9943) rotate(180) scale(39.497696)" xl:href="#Gradient_3"/><radialGradient id="Obj_Gradient_29" gradientTransform="translate(303.82532 504.3112) rotate(180) scale(39.497606)" xl:href="#Gradient_2"/><radialGradient id="Obj_Gradient_30" gradientTransform="translate(443.69503 503.5271) rotate(180) scale(39.497606)" xl:href="#Gradient"/><radialGradient id="Obj_Gradient_31" gradientTransform="translate(48.82347 268.73894) rotate(180) scale(17.168729)" xl:href="#Gradient_3"/><radialGradient id="Obj_Gradient_32" gradientTransform="translate(80.44664 268.73894) rotate(180) scale(17.168729)" xl:href="#Gradient_3"/><radialGradient id="Obj_Gradient_33" gradientTransform="translate(194.3252 268.73894) rotate(180) scale(17.168729)" xl:href="#Gradient_2"/><radialGradient id="Obj_Gradient_34" gradientTransform="translate(225.94837 268.73894) rotate(180) scale(17.168729)" xl:href="#Gradient_2"/><radialGradient id="Obj_Gradient_35" gradientTransform="translate(339.82694 268.73894) rotate(180) scale(17.168729)" xl:href="#Gradient"/><radialGradient id="Obj_Gradient_36" gradientTransform="translate(371.4501 268.73894) rotate(180) scale(17.168729)" xl:href="#Gradient"/></defs><metadata>Produced by OmniGraffle 7.9.2</metadata><g id="map_and_merge_WoW" fill="none" fill-opacity="1" stroke="none" stroke-dasharray="none" stroke-opacity="1"><title>map_and_merge_WoW</title><g id="map_and_merge_WoW: Layer 1"><title>Layer 1</title><g id="Graphic_748_shadow" filter="url(#Shadow)"><path fill="url(#Obj_Gradient)" d="M 374.8187 283.3157 L 366.5068 275.0038 C 366.1163 274.6133 366.1163 273.98013 366.5068 273.5896 L 374.8187 265.2777 C 375.20923 264.8872 375.8424 264.8872 376.2329 265.2777 L 384.5448 273.5896 C 384.93533 273.98013 384.93533 274.6133 384.5448 275.0038 L 376.2329 283.3157 C 375.8424 283.70623 375.20923 283.70623 374.8187 283.3157 Z"/><path stroke="#000" stroke-linecap="round" stroke-linejoin="round" stroke-width="3" d="M 374.8187 283.3157 L 366.5068 275.0038 C 366.1163 274.6133 366.1163 273.98013 366.5068 273.5896 L 374.8187 265.2777 C 375.20923 264.8872 375.8424 264.8872 376.2329 265.2777 L 384.5448 273.5896 C 384.93533 273.98013 384.93533 274.6133 384.5448 275.0038 L 376.2329 283.3157 C 375.8424 283.70623 375.20923 283.70623 374.8187 283.3157 Z"/></g><g id="Graphic_749_shadow" filter="url(#Shadow)"><path fill="#000" d="M 396.55204 267.31875 L 396.55204 281.27466 C 396.55204 281.52065 396.35262 281.72007 396.10664 281.72007 L 396.10664 281.72007 C 395.86065 281.72007 395.66123 281.52065 395.66123 281.27466 L 395.66123 267.31875 C 395.66123 267.07277 395.86065 266.87335 396.10664 266.87335 L 396.10664 266.87335 C 396.35262 266.87335 396.55204 267.07277 396.55204 267.31875 Z"/><path stroke="#000" stroke-linecap="square" stroke-linejoin="round" stroke-width="1" d="M 396.55204 267.31875 L 396.55204 281.27466 C 396.55204 281.52065 396.35262 281.72007 396.10664 281.72007 L 396.10664 281.72007 C 395.86065 281.72007 395.66123 281.52065 395.66123 281.27466 L 395.66123 267.31875 C 395.66123 267.07277 395.86065 266.87335 396.10664 266.87335 L 396.10664 266.87335 C 396.35262 266.87335 396.55204 267.07277 396.55204 267.31875 Z"/></g><g id="Graphic_750_shadow" filter="url(#Shadow)"><path fill="url(#Obj_Gradient_2)" d="M 343.19553 283.3157 L 334.88365 275.0038 C 334.49312 274.6133 334.49312 273.98013 334.88365 273.5896 L 343.19553 265.2777 C 343.58606 264.8872 344.21922 264.8872 344.60975 265.2777 L 352.92164 273.5896 C 353.31216 273.98013 353.31216 274.6133 352.92164 275.0038 L 344.60975 283.3157 C 344.21922 283.70623 343.58606 283.70623 343.19553 283.3157 Z"/><path stroke="#000" stroke-linecap="round" stroke-linejoin="round" stroke-width="3" d="M 343.19553 283.3157 L 334.88365 275.0038 C 334.49312 274.6133 334.49312 273.98013 334.88365 273.5896 L 343.19553 265.2777 C 343.58606 264.8872 344.21922 264.8872 344.60975 265.2777 L 352.92164 273.5896 C 353.31216 273.98013 353.31216 274.6133 352.92164 275.0038 L 344.60975 283.3157 C 344.21922 283.70623 343.58606 283.70623 343.19553 283.3157 Z"/></g><g id="Line_751_shadow" filter="url(#Shadow)"><line x1="324.254" x2="410.994" y1="274.148" y2="274.148" stroke="#000" stroke-linecap="round" stroke-linejoin="round" stroke-width="3" marker-end="url(#StickArrow_Marker)"/></g><g id="Graphic_752_shadow" filter="url(#Shadow)"><path fill="#fff" d="M 318.79633 259.62833 L 326.21055 252.21412 C 326.3981 252.02658 326.65244 251.92123 326.91765 251.92123 L 427.59123 251.92123 C 427.85644 251.92123 428.1108 252.02658 428.29833 252.21412 L 435.71255 259.62833 C 435.9001 259.81587 436.00544 260.07023 436.00544 260.33544 L 436.00544 288.258 C 436.00544 288.52323 435.9001 288.7776 435.71255 288.96512 L 428.29833 296.37933 C 428.1108 296.56687 427.85644 296.67223 427.59123 296.67223 L 326.91765 296.67223 C 326.65244 296.67223 326.3981 296.56687 326.21055 296.37933 L 318.79633 288.96512 C 318.6088 288.7776 318.50344 288.52323 318.50344 288.258 L 318.50344 260.33544 C 318.50344 260.07023 318.6088 259.81587 318.79633 259.62833 Z"/><path stroke="#000" stroke-linecap="round" stroke-linejoin="round" stroke-width="3" d="M 318.79633 259.62833 L 326.21055 252.21412 C 326.3981 252.02658 326.65244 251.92123 326.91765 251.92123 L 427.59123 251.92123 C 427.85644 251.92123 428.1108 252.02658 428.29833 252.21412 L 435.71255 259.62833 C 435.9001 259.81587 436.00544 260.07023 436.00544 260.33544 L 436.00544 288.258 C 436.00544 288.52323 435.9001 288.7776 435.71255 288.96512 L 428.29833 296.37933 C 428.1108 296.56687 427.85644 296.67223 427.59123 296.67223 L 326.91765 296.67223 C 326.65244 296.67223 326.3981 296.56687 326.21055 296.37933 L 318.79633 288.96512 C 318.6088 288.7776 318.50344 288.52323 318.50344 288.258 L 318.50344 260.33544 C 318.50344 260.07023 318.6088 259.81587 318.79633 259.62833 Z"/></g><g id="Graphic_754_shadow" filter="url(#Shadow)"><path fill="url(#Obj_Gradient_3)" d="M 229.31696 283.3157 L 221.00508 275.0038 C 220.61455 274.6133 220.61455 273.98013 221.00508 273.5896 C 221.00508 273.5896 221.00508 273.5896 221.00508 273.5896 L 229.31696 265.2777 C 229.7075 264.8872 230.34065 264.8872 230.73118 265.2777 L 239.04307 273.5896 C 239.4336 273.98013 239.4336 274.6133 239.04307 275.0038 C 239.04307 275.0038 239.04307 275.0038 239.04307 275.0038 L 230.73118 283.3157 C 230.34065 283.70623 229.7075 283.70623 229.31696 283.3157 Z"/><path stroke="#000" stroke-linecap="round" stroke-linejoin="round" stroke-width="3" d="M 229.31696 283.3157 L 221.00508 275.0038 C 220.61455 274.6133 220.61455 273.98013 221.00508 273.5896 C 221.00508 273.5896 221.00508 273.5896 221.00508 273.5896 L 229.31696 265.2777 C 229.7075 264.8872 230.34065 264.8872 230.73118 265.2777 L 239.04307 273.5896 C 239.4336 273.98013 239.4336 274.6133 239.04307 275.0038 C 239.04307 275.0038 239.04307 275.0038 239.04307 275.0038 L 230.73118 283.3157 C 230.34065 283.70623 229.7075 283.70623 229.31696 283.3157 Z"/></g><g id="Graphic_755_shadow" filter="url(#Shadow)"><path fill="#000" d="M 251.0503 267.31875 L 251.0503 281.27466 C 251.0503 281.52065 250.85088 281.72007 250.6049 281.72007 L 250.6049 281.72007 C 250.3589 281.72007 250.1595 281.52065 250.1595 281.27466 L 250.1595 267.31875 C 250.1595 267.07277 250.3589 266.87335 250.6049 266.87335 L 250.6049 266.87335 C 250.85088 266.87335 251.0503 267.07277 251.0503 267.31875 Z"/><path stroke="#000" stroke-linecap="square" stroke-linejoin="round" stroke-width="1" d="M 251.0503 267.31875 L 251.0503 281.27466 C 251.0503 281.52065 250.85088 281.72007 250.6049 281.72007 L 250.6049 281.72007 C 250.3589 281.72007 250.1595 281.52065 250.1595 281.27466 L 250.1595 267.31875 C 250.1595 267.07277 250.3589 266.87335 250.6049 266.87335 L 250.6049 266.87335 C 250.85088 266.87335 251.0503 267.07277 251.0503 267.31875 Z"/></g><g id="Graphic_756_shadow" filter="url(#Shadow)"><path fill="url(#Obj_Gradient_4)" d="M 197.6938 283.3157 L 189.3819 275.0038 C 188.99138 274.6133 188.99138 273.98013 189.3819 273.5896 C 189.3819 273.5896 189.3819 273.5896 189.3819 273.5896 L 197.6938 265.2777 C 198.08432 264.8872 198.71748 264.8872 199.108 265.2777 L 207.4199 273.5896 C 207.81042 273.98013 207.81042 274.6133 207.4199 275.0038 C 207.4199 275.0038 207.4199 275.0038 207.4199 275.0038 L 199.108 283.3157 C 198.71748 283.70623 198.08432 283.70623 197.6938 283.3157 Z"/><path stroke="#000" stroke-linecap="round" stroke-linejoin="round" stroke-width="3" d="M 197.6938 283.3157 L 189.3819 275.0038 C 188.99138 274.6133 188.99138 273.98013 189.3819 273.5896 C 189.3819 273.5896 189.3819 273.5896 189.3819 273.5896 L 197.6938 265.2777 C 198.08432 264.8872 198.71748 264.8872 199.108 265.2777 L 207.4199 273.5896 C 207.81042 273.98013 207.81042 274.6133 207.4199 275.0038 C 207.4199 275.0038 207.4199 275.0038 207.4199 275.0038 L 199.108 283.3157 C 198.71748 283.70623 198.08432 283.70623 197.6938 283.3157 Z"/></g><g id="Line_757_shadow" filter="url(#Shadow)"><line x1="178.753" x2="265.493" y1="274.148" y2="274.148" stroke="#000" stroke-linecap="round" stroke-linejoin="round" stroke-width="3" marker-end="url(#StickArrow_Marker)"/></g><g id="Graphic_758_shadow" filter="url(#Shadow)"><path fill="#fff" d="M 173.29461 259.62833 L 180.70883 252.21412 C 180.89636 252.02658 181.15072 251.92123 181.41593 251.92123 L 282.0895 251.92123 C 282.35472 251.92123 282.60908 252.02658 282.7966 252.21412 L 290.21083 259.62833 C 290.39836 259.81587 290.50372 260.07023 290.50372 260.33544 L 290.50372 288.258 C 290.50372 288.52323 290.39836 288.7776 290.21083 288.96512 L 282.7966 296.37933 C 282.60908 296.56687 282.35472 296.67223 282.0895 296.67223 L 181.41593 296.67223 C 181.15072 296.67223 180.89636 296.56687 180.70883 296.37933 L 173.29461 288.96512 C 173.10708 288.7776 173.00172 288.52323 173.00172 288.258 L 173.00172 260.33544 C 173.00172 260.07023 173.10708 259.81587 173.29461 259.62833 Z"/><path stroke="#000" stroke-linecap="round" stroke-linejoin="round" stroke-width="3" d="M 173.29461 259.62833 L 180.70883 252.21412 C 180.89636 252.02658 181.15072 251.92123 181.41593 251.92123 L 282.0895 251.92123 C 282.35472 251.92123 282.60908 252.02658 282.7966 252.21412 L 290.21083 259.62833 C 290.39836 259.81587 290.50372 260.07023 290.50372 260.33544 L 290.50372 288.258 C 290.50372 288.52323 290.39836 288.7776 290.21083 288.96512 L 282.7966 296.37933 C 282.60908 296.56687 282.35472 296.67223 282.0895 296.67223 L 181.41593 296.67223 C 181.15072 296.67223 180.89636 296.56687 180.70883 296.37933 L 173.29461 288.96512 C 173.10708 288.7776 173.00172 288.52323 173.00172 288.258 L 173.00172 260.33544 C 173.00172 260.07023 173.10708 259.81587 173.29461 259.62833 Z"/></g><g id="Graphic_760_shadow" filter="url(#Shadow)"><path fill="url(#Obj_Gradient_5)" d="M 83.81523 283.3157 L 75.50335 275.0038 C 75.11282 274.6133 75.11282 273.98013 75.50335 273.5896 C 75.50335 273.5896 75.50335 273.5896 75.50335 273.5896 L 83.81523 265.2777 C 84.20576 264.8872 84.83892 264.8872 85.22945 265.2777 L 93.54134 273.5896 C 93.93186 273.98013 93.93186 274.6133 93.54134 275.0038 C 93.54134 275.0038 93.54134 275.0038 93.54134 275.0038 L 85.22945 283.3157 C 84.83892 283.70623 84.20576 283.70623 83.81523 283.3157 Z"/><path stroke="#000" stroke-linecap="round" stroke-linejoin="round" stroke-width="3" d="M 83.81523 283.3157 L 75.50335 275.0038 C 75.11282 274.6133 75.11282 273.98013 75.50335 273.5896 C 75.50335 273.5896 75.50335 273.5896 75.50335 273.5896 L 83.81523 265.2777 C 84.20576 264.8872 84.83892 264.8872 85.22945 265.2777 L 93.54134 273.5896 C 93.93186 273.98013 93.93186 274.6133 93.54134 275.0038 C 93.54134 275.0038 93.54134 275.0038 93.54134 275.0038 L 85.22945 283.3157 C 84.83892 283.70623 84.20576 283.70623 83.81523 283.3157 Z"/></g><g id="Graphic_761_shadow" filter="url(#Shadow)"><path fill="#000" d="M 105.54858 267.31875 L 105.54858 281.27466 C 105.54858 281.52065 105.34916 281.72007 105.10318 281.72007 L 105.10318 281.72007 C 104.85719 281.72007 104.65777 281.52065 104.65777 281.27466 L 104.65777 267.31875 C 104.65777 267.07277 104.85719 266.87335 105.10318 266.87335 L 105.10318 266.87335 C 105.34916 266.87335 105.54858 267.07277 105.54858 267.31875 Z"/><path stroke="#000" stroke-linecap="square" stroke-linejoin="round" stroke-width="1" d="M 105.54858 267.31875 L 105.54858 281.27466 C 105.54858 281.52065 105.34916 281.72007 105.10318 281.72007 L 105.10318 281.72007 C 104.85719 281.72007 104.65777 281.52065 104.65777 281.27466 L 104.65777 267.31875 C 104.65777 267.07277 104.85719 266.87335 105.10318 266.87335 L 105.10318 266.87335 C 105.34916 266.87335 105.54858 267.07277 105.54858 267.31875 Z"/></g><g id="Graphic_762_shadow" filter="url(#Shadow)"><path fill="url(#Obj_Gradient_6)" d="M 52.192064 283.3157 L 43.880177 275.0038 C 43.48965 274.6133 43.48965 273.98013 43.880177 273.5896 C 43.880177 273.5896 43.880177 273.5896 43.880177 273.5896 L 52.192064 265.2777 C 52.58259 264.8872 53.215753 264.8872 53.60628 265.2777 L 61.918165 273.5896 C 62.30869 273.98013 62.30869 274.6133 61.918165 275.0038 C 61.918165 275.0038 61.918165 275.0038 61.918165 275.0038 L 53.60628 283.3157 C 53.215753 283.70623 52.58259 283.70623 52.192064 283.3157 Z"/><path stroke="#000" stroke-linecap="round" stroke-linejoin="round" stroke-width="3" d="M 52.192064 283.3157 L 43.880177 275.0038 C 43.48965 274.6133 43.48965 273.98013 43.880177 273.5896 C 43.880177 273.5896 43.880177 273.5896 43.880177 273.5896 L 52.192064 265.2777 C 52.58259 264.8872 53.215753 264.8872 53.60628 265.2777 L 61.918165 273.5896 C 62.30869 273.98013 62.30869 274.6133 61.918165 275.0038 C 61.918165 275.0038 61.918165 275.0038 61.918165 275.0038 L 53.60628 283.3157 C 53.215753 283.70623 52.58259 283.70623 52.192064 283.3157 Z"/></g><g id="Line_763_shadow" filter="url(#Shadow)"><line x1="33.251" x2="119.991" y1="274.148" y2="274.148" stroke="#000" stroke-linecap="round" stroke-linejoin="round" stroke-width="3" marker-end="url(#StickArrow_Marker)"/></g><g id="Graphic_764_shadow" filter="url(#Shadow)"><path fill="#fff" d="M 27.792893 259.62833 L 35.207107 252.21412 C 35.394643 252.02658 35.648997 251.92123 35.914214 251.92123 L 136.58779 251.92123 C 136.853 251.92123 137.10736 252.02658 137.2949 252.21412 L 144.7091 259.62833 C 144.89664 259.81587 145.002 260.07023 145.002 260.33544 L 145.002 288.258 C 145.002 288.52323 144.89664 288.7776 144.7091 288.96512 L 137.2949 296.37933 C 137.10736 296.56687 136.853 296.67223 136.58779 296.67223 L 35.914214 296.67223 C 35.648997 296.67223 35.394643 296.56687 35.207107 296.37933 L 27.792893 288.96512 C 27.605357 288.7776 27.5 288.52323 27.5 288.258 L 27.5 260.33544 C 27.5 260.07023 27.605357 259.81587 27.792893 259.62833 Z"/><path stroke="#000" stroke-linecap="round" stroke-linejoin="round" stroke-width="3" d="M 27.792893 259.62833 L 35.207107 252.21412 C 35.394643 252.02658 35.648997 251.92123 35.914214 251.92123 L 136.58779 251.92123 C 136.853 251.92123 137.10736 252.02658 137.2949 252.21412 L 144.7091 259.62833 C 144.89664 259.81587 145.002 260.07023 145.002 260.33544 L 145.002 288.258 C 145.002 288.52323 144.89664 288.7776 144.7091 288.96512 L 137.2949 296.37933 C 137.10736 296.56687 136.853 296.67223 136.58779 296.67223 L 35.914214 296.67223 C 35.648997 296.67223 35.394643 296.56687 35.207107 296.37933 L 27.792893 288.96512 C 27.605357 288.7776 27.5 288.52323 27.5 288.258 L 27.5 260.33544 C 27.5 260.07023 27.605357 259.81587 27.792893 259.62833 Z"/></g><g id="Graphic_765_shadow" filter="url(#Shadow)"><path fill="#000" d="M 536.3245 257.99198 L 536.3245 290.0983 C 536.3245 290.66422 535.8658 291.123 535.29986 291.123 L 535.29986 291.123 C 534.73395 291.123 534.2752 290.66422 534.2752 290.0983 L 534.2752 257.99198 C 534.2752 257.42607 534.73395 256.9673 535.29986 256.9673 L 535.29986 256.9673 C 535.8658 256.9673 536.3245 257.42607 536.3245 257.99198 Z"/><path stroke="#000" stroke-linecap="square" stroke-linejoin="round" stroke-width="1" d="M 536.3245 257.99198 L 536.3245 290.0983 C 536.3245 290.66422 535.8658 291.123 535.29986 291.123 L 535.29986 291.123 C 534.73395 291.123 534.2752 290.66422 534.2752 290.0983 L 534.2752 257.99198 C 534.2752 257.42607 534.73395 256.9673 535.29986 256.9673 L 535.29986 256.9673 C 535.8658 256.9673 536.3245 257.42607 536.3245 257.99198 Z"/></g><g id="Line_766_shadow" filter="url(#Shadow)"><line x1="17.637" x2="585.916" y1="273.704" y2="273.704" stroke="#000" stroke-linecap="round" stroke-linejoin="round" stroke-width="3" marker-end="url(#StickArrow_Marker_2)"/></g><g id="Graphic_774_shadow" filter="url(#Shadow)"><path fill="url(#Obj_Gradient_7)" d="M 452.3643 537.9814 L 431.4031 517.0202 C 431.01255 516.62965 431.01255 515.9965 431.4031 515.60596 L 452.3643 494.64474 C 452.7548 494.2542 453.388 494.2542 453.7785 494.64474 L 474.7397 515.60596 C 475.13025 515.9965 475.13025 516.62965 474.7397 517.0202 L 453.7785 537.9814 C 453.388 538.3719 452.7548 538.3719 452.3643 537.9814 C 452.3643 537.9814 452.3643 537.9814 452.3643 537.9814 Z"/><path stroke="#000" stroke-linecap="round" stroke-linejoin="round" stroke-width="3" d="M 452.3643 537.9814 L 431.4031 517.0202 C 431.01255 516.62965 431.01255 515.9965 431.4031 515.60596 L 452.3643 494.64474 C 452.7548 494.2542 453.388 494.2542 453.7785 494.64474 L 474.7397 515.60596 C 475.13025 515.9965 475.13025 516.62965 474.7397 517.0202 L 453.7785 537.9814 C 453.388 538.3719 452.7548 538.3719 452.3643 537.9814 C 452.3643 537.9814 452.3643 537.9814 452.3643 537.9814 Z"/></g><g id="Graphic_775_shadow" filter="url(#Shadow)"><path fill="url(#Obj_Gradient_8)" d="M 312.4946 538.7655 L 291.53337 517.8043 C 291.14284 517.41375 291.14284 516.7806 291.53337 516.39006 L 312.4946 495.42884 C 312.8851 495.0383 313.51827 495.0383 313.9088 495.42884 L 334.87 516.39006 C 335.26054 516.7806 335.26054 517.41375 334.87 517.8043 L 313.9088 538.7655 C 313.51827 539.156 312.8851 539.156 312.4946 538.7655 C 312.4946 538.7655 312.4946 538.7655 312.4946 538.7655 Z"/><path stroke="#000" stroke-linecap="round" stroke-linejoin="round" stroke-width="3" d="M 312.4946 538.7655 L 291.53337 517.8043 C 291.14284 517.41375 291.14284 516.7806 291.53337 516.39006 L 312.4946 495.42884 C 312.8851 495.0383 313.51827 495.0383 313.9088 495.42884 L 334.87 516.39006 C 335.26054 516.7806 335.26054 517.41375 334.87 517.8043 L 313.9088 538.7655 C 313.51827 539.156 312.8851 539.156 312.4946 538.7655 C 312.4946 538.7655 312.4946 538.7655 312.4946 538.7655 Z"/></g><g id="Graphic_777_shadow" filter="url(#Shadow)"><path fill="url(#Obj_Gradient_9)" d="M 165.4194 538.4487 L 144.45814 517.4874 C 144.06761 517.0969 144.06761 516.4637 144.45814 516.0732 C 144.45814 516.0732 144.45814 516.0732 144.45814 516.0732 L 165.4194 495.1119 C 165.80993 494.7214 166.4431 494.7214 166.83362 495.1119 L 187.79489 516.0732 C 188.18541 516.4637 188.18541 517.0969 187.79489 517.4874 C 187.79489 517.4874 187.79489 517.4874 187.79489 517.4874 L 166.83362 538.4487 C 166.4431 538.8392 165.80993 538.8392 165.4194 538.4487 Z"/><path stroke="#000" stroke-linecap="round" stroke-linejoin="round" stroke-width="3" d="M 165.4194 538.4487 L 144.45814 517.4874 C 144.06761 517.0969 144.06761 516.4637 144.45814 516.0732 C 144.45814 516.0732 144.45814 516.0732 144.45814 516.0732 L 165.4194 495.1119 C 165.80993 494.7214 166.4431 494.7214 166.83362 495.1119 L 187.79489 516.0732 C 188.18541 516.4637 188.18541 517.0969 187.79489 517.4874 C 187.79489 517.4874 187.79489 517.4874 187.79489 517.4874 L 166.83362 538.4487 C 166.4431 538.8392 165.80993 538.8392 165.4194 538.4487 Z"/></g><g id="Graphic_778_shadow" filter="url(#Shadow)"><path fill="url(#Obj_Gradient_10)" d="M 92.66838 538.4487 L 71.70711 517.4874 C 71.31658 517.0969 71.31658 516.4637 71.70711 516.0732 C 71.70711 516.0732 71.70711 516.0732 71.70711 516.0732 L 92.66838 495.1119 C 93.0589 494.7214 93.69206 494.7214 94.08259 495.1119 L 115.04386 516.0732 C 115.43438 516.4637 115.43438 517.0969 115.04386 517.4874 C 115.04386 517.4874 115.04386 517.4874 115.04386 517.4874 L 94.08259 538.4487 C 93.69206 538.8392 93.0589 538.8392 92.66838 538.4487 Z"/><path stroke="#000" stroke-linecap="round" stroke-linejoin="round" stroke-width="3" d="M 92.66838 538.4487 L 71.70711 517.4874 C 71.31658 517.0969 71.31658 516.4637 71.70711 516.0732 C 71.70711 516.0732 71.70711 516.0732 71.70711 516.0732 L 92.66838 495.1119 C 93.0589 494.7214 93.69206 494.7214 94.08259 495.1119 L 115.04386 516.0732 C 115.43438 516.4637 115.43438 517.0969 115.04386 517.4874 C 115.04386 517.4874 115.04386 517.4874 115.04386 517.4874 L 94.08259 538.4487 C 93.69206 538.8392 93.0589 538.8392 92.66838 538.4487 Z"/></g><g id="Graphic_779_shadow" filter="url(#Shadow)"><path fill="#000" d="M 536.3245 500.7271 L 536.3245 532.8334 C 536.3245 533.39933 535.8658 533.8581 535.29986 533.8581 L 535.29986 533.8581 C 534.73395 533.8581 534.2752 533.39933 534.2752 532.8334 L 534.2752 500.7271 C 534.2752 500.1612 534.73395 499.7024 535.29986 499.7024 L 535.29986 499.7024 C 535.8658 499.7024 536.3245 500.1612 536.3245 500.7271 Z"/><path stroke="#000" stroke-linecap="square" stroke-linejoin="round" stroke-width="1" d="M 536.3245 500.7271 L 536.3245 532.8334 C 536.3245 533.39933 535.8658 533.8581 535.29986 533.8581 L 535.29986 533.8581 C 534.73395 533.8581 534.2752 533.39933 534.2752 532.8334 L 534.2752 500.7271 C 534.2752 500.1612 534.73395 499.7024 535.29986 499.7024 L 535.29986 499.7024 C 535.8658 499.7024 536.3245 500.1612 536.3245 500.7271 Z"/></g><g id="Graphic_780_shadow" filter="url(#Shadow)"><path fill="url(#Obj_Gradient_11)" d="M 383.24544 538.7655 L 362.28423 517.8043 C 361.8937 517.41375 361.8937 516.7806 362.28423 516.39006 L 383.24544 495.42884 C 383.63597 495.0383 384.26913 495.0383 384.65966 495.42884 L 405.62087 516.39006 C 406.0114 516.7806 406.0114 517.41375 405.62087 517.8043 L 384.65966 538.7655 C 384.26913 539.156 383.63597 539.156 383.24544 538.7655 C 383.24544 538.7655 383.24544 538.7655 383.24544 538.7655 Z"/><path stroke="#000" stroke-linecap="round" stroke-linejoin="round" stroke-width="3" d="M 383.24544 538.7655 L 362.28423 517.8043 C 361.8937 517.41375 361.8937 516.7806 362.28423 516.39006 L 383.24544 495.42884 C 383.63597 495.0383 384.26913 495.0383 384.65966 495.42884 L 405.62087 516.39006 C 406.0114 516.7806 406.0114 517.41375 405.62087 517.8043 L 384.65966 538.7655 C 384.26913 539.156 383.63597 539.156 383.24544 538.7655 C 383.24544 538.7655 383.24544 538.7655 383.24544 538.7655 Z"/></g><g id="Graphic_781_shadow" filter="url(#Shadow)"><path fill="url(#Obj_Gradient_12)" d="M 239.66832 538.607 L 218.7071 517.6458 C 218.31658 517.25527 218.31658 516.6221 218.7071 516.2316 L 239.66832 495.27036 C 240.05885 494.87984 240.692 494.87984 241.08254 495.27036 L 262.04376 516.2316 C 262.43428 516.6221 262.43428 517.25527 262.04376 517.6458 L 241.08254 538.607 C 240.692 538.99753 240.05885 538.99753 239.66832 538.607 C 239.66832 538.607 239.66832 538.607 239.66832 538.607 Z"/><path stroke="#000" stroke-linecap="round" stroke-linejoin="round" stroke-width="3" d="M 239.66832 538.607 L 218.7071 517.6458 C 218.31658 517.25527 218.31658 516.6221 218.7071 516.2316 L 239.66832 495.27036 C 240.05885 494.87984 240.692 494.87984 241.08254 495.27036 L 262.04376 516.2316 C 262.43428 516.6221 262.43428 517.25527 262.04376 517.6458 L 241.08254 538.607 C 240.692 538.99753 240.05885 538.99753 239.66832 538.607 C 239.66832 538.607 239.66832 538.607 239.66832 538.607 Z"/></g><g id="Line_782_shadow" filter="url(#Shadow)"><line x1="17.637" x2="585.916" y1="516.439" y2="516.439" stroke="#000" stroke-linecap="round" stroke-linejoin="round" stroke-width="3" marker-end="url(#StickArrow_Marker_2)"/></g><g id="Graphic_791_shadow" filter="url(#Shadow)"><path fill="#fff" d="M 18.636636 358.96717 L 623.2159 358.96717 C 623.7682 358.96717 624.2159 359.4149 624.2159 359.96717 L 624.2159 425.09346 C 624.2159 425.64574 623.7682 426.09346 623.2159 426.09346 L 18.636636 426.09346 C 18.084352 426.09346 17.636636 425.64574 17.636636 425.09346 L 17.636636 359.96717 C 17.636636 359.4149 18.084352 358.96717 18.636636 358.96717 Z"/><path stroke="#000" stroke-linecap="round" stroke-linejoin="round" stroke-width="3" d="M 18.636636 358.96717 L 623.2159 358.96717 C 623.7682 358.96717 624.2159 359.4149 624.2159 359.96717 L 624.2159 425.09346 C 624.2159 425.64574 623.7682 426.09346 623.2159 426.09346 L 18.636636 426.09346 C 18.084352 426.09346 17.636636 425.64574 17.636636 425.09346 L 17.636636 359.96717 C 17.636636 359.4149 18.084352 358.96717 18.636636 358.96717 Z"/></g><g id="Graphic_794_shadow" filter="url(#Shadow)"><path fill="url(#Obj_Gradient_13)" d="M 406.9173 172.55667 L 390.8315 156.47088 C 390.44097 156.08036 390.44097 155.4472 390.8315 155.05667 L 406.9173 138.97088 C 407.3078 138.58036 407.94097 138.58036 408.3315 138.97088 L 424.4173 155.05667 C 424.8078 155.4472 424.8078 156.08036 424.4173 156.47088 L 408.3315 172.55667 C 407.94097 172.9472 407.3078 172.9472 406.9173 172.55667 Z"/><path stroke="#000" stroke-linecap="round" stroke-linejoin="round" stroke-width="3" d="M 406.9173 172.55667 L 390.8315 156.47088 C 390.44097 156.08036 390.44097 155.4472 390.8315 155.05667 L 406.9173 138.97088 C 407.3078 138.58036 407.94097 138.58036 408.3315 138.97088 L 424.4173 155.05667 C 424.8078 155.4472 424.8078 156.08036 424.4173 156.47088 L 408.3315 172.55667 C 407.94097 172.9472 407.3078 172.9472 406.9173 172.55667 Z"/></g><g id="Graphic_795_shadow" filter="url(#Shadow)"><path fill="#000" d="M 475.44683 143.61456 L 475.44683 167.61456 C 475.44683 168.16684 474.9991 168.61456 474.44683 168.61456 L 474.44683 168.61456 C 473.89455 168.61456 473.44683 168.16684 473.44683 167.61456 L 473.44683 143.61456 C 473.44683 143.06227 473.89455 142.61456 474.44683 142.61456 L 474.44683 142.61456 C 474.9991 142.61456 475.44683 143.06227 475.44683 143.61456 Z"/><path stroke="#000" stroke-linecap="square" stroke-linejoin="round" stroke-width="1" d="M 475.44683 143.61456 L 475.44683 167.61456 C 475.44683 168.16684 474.9991 168.61456 474.44683 168.61456 L 474.44683 168.61456 C 473.89455 168.61456 473.44683 168.16684 473.44683 167.61456 L 473.44683 143.61456 C 473.44683 143.06227 473.89455 142.61456 474.44683 142.61456 L 474.44683 142.61456 C 474.9991 142.61456 475.44683 143.06227 475.44683 143.61456 Z"/></g><g id="Graphic_796_shadow" filter="url(#Shadow)"><path fill="url(#Obj_Gradient_14)" d="M 346.7929 172.47745 L 330.7071 156.39167 C 330.3166 156.00114 330.3166 155.36798 330.7071 154.97745 L 346.7929 138.89167 C 347.1834 138.50114 347.8166 138.50114 348.2071 138.89167 L 364.2929 154.97745 C 364.6834 155.36798 364.6834 156.00114 364.2929 156.39167 L 348.2071 172.47745 C 347.8166 172.86798 347.1834 172.86798 346.7929 172.47745 Z"/><path stroke="#000" stroke-linecap="round" stroke-linejoin="round" stroke-width="3" d="M 346.7929 172.47745 L 330.7071 156.39167 C 330.3166 156.00114 330.3166 155.36798 330.7071 154.97745 L 346.7929 138.89167 C 347.1834 138.50114 347.8166 138.50114 348.2071 138.89167 L 364.2929 154.97745 C 364.6834 155.36798 364.6834 156.00114 364.2929 156.39167 L 348.2071 172.47745 C 347.8166 172.86798 347.1834 172.86798 346.7929 172.47745 Z"/></g><g id="Line_797_shadow" filter="url(#Shadow)"><line x1="301.4" x2="502.1" y1="155.56" y2="155.56" stroke="#000" stroke-linecap="round" stroke-linejoin="round" stroke-width="3" marker-end="url(#StickArrow_Marker_3)"/></g><g id="Graphic_798_shadow" filter="url(#Shadow)"><circle cx="180.5" cy="155.764" r="17.5" fill="url(#Obj_Gradient_15)"/><circle cx="180.5" cy="155.764" r="17.5" stroke="#000" stroke-linecap="round" stroke-linejoin="round" stroke-width="3"/></g><g id="Graphic_808_shadow" filter="url(#Shadow)"><path fill="#fff" d="M 16.784057 121.99685 L 621.36334 121.99685 C 621.9156 121.99685 622.36334 122.44456 622.36334 122.99685 L 622.36334 188.12314 C 622.36334 188.67542 621.9156 189.12314 621.36334 189.12314 L 16.784057 189.12314 C 16.231773 189.12314 15.784057 188.67542 15.784057 188.12314 L 15.784057 122.99685 C 15.784057 122.44456 16.231773 121.99685 16.784057 121.99685 Z"/><path stroke="#000" stroke-linecap="round" stroke-linejoin="round" stroke-width="3" d="M 16.784057 121.99685 L 621.36334 121.99685 C 621.9156 121.99685 622.36334 122.44456 622.36334 122.99685 L 622.36334 188.12314 C 622.36334 188.67542 621.9156 189.12314 621.36334 189.12314 L 16.784057 189.12314 C 16.231773 189.12314 15.784057 188.67542 15.784057 188.12314 L 15.784057 122.99685 C 15.784057 122.44456 16.231773 121.99685 16.784057 121.99685 Z"/></g><g id="Graphic_809_shadow" filter="url(#Shadow)"><path fill="#000" d="M 536.3245 15.256895 L 536.3245 47.36323 C 536.3245 47.92914 535.8658 48.3879 535.29986 48.3879 L 535.29986 48.3879 C 534.73395 48.3879 534.2752 47.92914 534.2752 47.36323 L 534.2752 15.256895 C 534.2752 14.690985 534.73395 14.232224 535.29986 14.232224 L 535.29986 14.232224 C 535.8658 14.232224 536.3245 14.690985 536.3245 15.256895 Z"/><path stroke="#000" stroke-linecap="square" stroke-linejoin="round" stroke-width="1" d="M 536.3245 15.256895 L 536.3245 47.36323 C 536.3245 47.92914 535.8658 48.3879 535.29986 48.3879 L 535.29986 48.3879 C 534.73395 48.3879 534.2752 47.92914 534.2752 47.36323 L 534.2752 15.256895 C 534.2752 14.690985 534.73395 14.232224 535.29986 14.232224 L 535.29986 14.232224 C 535.8658 14.232224 536.3245 14.690985 536.3245 15.256895 Z"/></g><g id="Graphic_810_shadow" filter="url(#Shadow)"><circle cx="351.177" cy="29.813" r="22.375" fill="url(#Obj_Gradient_16)"/><circle cx="351.177" cy="29.813" r="22.375" stroke="#000" stroke-linecap="round" stroke-linejoin="round" stroke-width="3"/></g><g id="Graphic_811_shadow" filter="url(#Shadow)"><circle cx="207.026" cy="29.813" r="22.375" fill="url(#Obj_Gradient_17)"/><circle cx="207.026" cy="29.813" r="22.375" stroke="#000" stroke-linecap="round" stroke-linejoin="round" stroke-width="3"/></g><g id="Graphic_812_shadow" filter="url(#Shadow)"><circle cx="62.875" cy="29.813" r="22.375" fill="url(#Obj_Gradient_18)"/><circle cx="62.875" cy="29.813" r="22.375" stroke="#000" stroke-linecap="round" stroke-linejoin="round" stroke-width="3"/></g><g id="Line_813_shadow" filter="url(#Shadow)"><line x1="17.637" x2="585.916" y1="30.969" y2="30.969" stroke="#000" stroke-linecap="round" stroke-linejoin="round" stroke-width="3" marker-end="url(#StickArrow_Marker_2)"/></g><g id="Group_735"><g id="Line_816"><line x1="62.099" x2="60.757" y1="53.676" y2="94.911" stroke="#000" stroke-dasharray="3 12" stroke-linecap="round" stroke-linejoin="round" stroke-width="3" marker-end="url(#FilledArrow_Marker)"/></g><g id="Line_815"><line x1="206.998" x2="206.948" y1="53.689" y2="94.897" stroke="#000" stroke-dasharray="3 12" stroke-linecap="round" stroke-linejoin="round" stroke-width="3" marker-end="url(#FilledArrow_Marker)"/></g><g id="Line_814"><line x1="351.689" x2="352.574" y1="53.683" y2="94.903" stroke="#000" stroke-dasharray="3 12" stroke-linecap="round" stroke-linejoin="round" stroke-width="3" marker-end="url(#FilledArrow_Marker)"/></g><g id="Line_813"><line x1="17.637" x2="585.916" y1="30.969" y2="30.969" stroke="#000" stroke-linecap="round" stroke-linejoin="round" stroke-width="3" marker-end="url(#StickArrow_Marker_2)"/></g><g id="Graphic_812"><circle cx="62.875" cy="29.813" r="22.375" fill="url(#Obj_Gradient_19)"/><circle cx="62.875" cy="29.813" r="22.375" stroke="#000" stroke-linecap="round" stroke-linejoin="round" stroke-width="3"/></g><g id="Graphic_811"><circle cx="207.026" cy="29.813" r="22.375" fill="url(#Obj_Gradient_20)"/><circle cx="207.026" cy="29.813" r="22.375" stroke="#000" stroke-linecap="round" stroke-linejoin="round" stroke-width="3"/></g><g id="Graphic_810"><circle cx="351.177" cy="29.813" r="22.375" fill="url(#Obj_Gradient_21)"/><circle cx="351.177" cy="29.813" r="22.375" stroke="#000" stroke-linecap="round" stroke-linejoin="round" stroke-width="3"/></g><g id="Graphic_809"><path fill="#000" d="M 536.3245 15.256895 L 536.3245 47.36323 C 536.3245 47.92914 535.8658 48.3879 535.29986 48.3879 L 535.29986 48.3879 C 534.73395 48.3879 534.2752 47.92914 534.2752 47.36323 L 534.2752 15.256895 C 534.2752 14.690985 534.73395 14.232224 535.29986 14.232224 L 535.29986 14.232224 C 535.8658 14.232224 536.3245 14.690985 536.3245 15.256895 Z"/><path stroke="#000" stroke-linecap="square" stroke-linejoin="round" stroke-width="1" d="M 536.3245 15.256895 L 536.3245 47.36323 C 536.3245 47.92914 535.8658 48.3879 535.29986 48.3879 L 535.29986 48.3879 C 534.73395 48.3879 534.2752 47.92914 534.2752 47.36323 L 534.2752 15.256895 C 534.2752 14.690985 534.73395 14.232224 535.29986 14.232224 L 535.29986 14.232224 C 535.8658 14.232224 536.3245 14.690985 536.3245 15.256895 Z"/></g><g id="Group_800"><g id="Graphic_808"><path fill="#fff" d="M 16.784057 121.99685 L 621.36334 121.99685 C 621.9156 121.99685 622.36334 122.44456 622.36334 122.99685 L 622.36334 188.12314 C 622.36334 188.67542 621.9156 189.12314 621.36334 189.12314 L 16.784057 189.12314 C 16.231773 189.12314 15.784057 188.67542 15.784057 188.12314 L 15.784057 122.99685 C 15.784057 122.44456 16.231773 121.99685 16.784057 121.99685 Z"/><path stroke="#000" stroke-linecap="round" stroke-linejoin="round" stroke-width="3" d="M 16.784057 121.99685 L 621.36334 121.99685 C 621.9156 121.99685 622.36334 122.44456 622.36334 122.99685 L 622.36334 188.12314 C 622.36334 188.67542 621.9156 189.12314 621.36334 189.12314 L 16.784057 189.12314 C 16.231773 189.12314 15.784057 188.67542 15.784057 188.12314 L 15.784057 122.99685 C 15.784057 122.44456 16.231773 121.99685 16.784057 121.99685 Z"/><text fill="#000" transform="translate(20.784057 141.05999)"><tspan x="60.903" y="23" fill="#000" font-family="Helvetica" font-size="24" font-weight="700">map { }</tspan></text></g></g><g id="Line_799"><line x1="535.3" x2="535.3" y1="48.888" y2="94.897" stroke="#000" stroke-dasharray="3 12" stroke-linecap="round" stroke-linejoin="round" stroke-width="3" marker-end="url(#FilledArrow_Marker)"/></g><g id="Graphic_798"><circle cx="180.5" cy="155.764" r="17.5" fill="url(#Obj_Gradient_22)"/><circle cx="180.5" cy="155.764" r="17.5" stroke="#000" stroke-linecap="round" stroke-linejoin="round" stroke-width="3"/></g><g id="Line_797"><line x1="301.4" x2="502.1" y1="155.56" y2="155.56" stroke="#000" stroke-linecap="round" stroke-linejoin="round" stroke-width="3" marker-end="url(#StickArrow_Marker_3)"/></g><g id="Graphic_796"><path fill="url(#Obj_Gradient_23)" d="M 346.7929 172.47745 L 330.7071 156.39167 C 330.3166 156.00114 330.3166 155.36798 330.7071 154.97745 L 346.7929 138.89167 C 347.1834 138.50114 347.8166 138.50114 348.2071 138.89167 L 364.2929 154.97745 C 364.6834 155.36798 364.6834 156.00114 364.2929 156.39167 L 348.2071 172.47745 C 347.8166 172.86798 347.1834 172.86798 346.7929 172.47745 Z"/><path stroke="#000" stroke-linecap="round" stroke-linejoin="round" stroke-width="3" d="M 346.7929 172.47745 L 330.7071 156.39167 C 330.3166 156.00114 330.3166 155.36798 330.7071 154.97745 L 346.7929 138.89167 C 347.1834 138.50114 347.8166 138.50114 348.2071 138.89167 L 364.2929 154.97745 C 364.6834 155.36798 364.6834 156.00114 364.2929 156.39167 L 348.2071 172.47745 C 347.8166 172.86798 347.1834 172.86798 346.7929 172.47745 Z"/></g><g id="Graphic_795"><path fill="#000" d="M 475.44683 143.61456 L 475.44683 167.61456 C 475.44683 168.16684 474.9991 168.61456 474.44683 168.61456 L 474.44683 168.61456 C 473.89455 168.61456 473.44683 168.16684 473.44683 167.61456 L 473.44683 143.61456 C 473.44683 143.06227 473.89455 142.61456 474.44683 142.61456 L 474.44683 142.61456 C 474.9991 142.61456 475.44683 143.06227 475.44683 143.61456 Z"/><path stroke="#000" stroke-linecap="square" stroke-linejoin="round" stroke-width="1" d="M 475.44683 143.61456 L 475.44683 167.61456 C 475.44683 168.16684 474.9991 168.61456 474.44683 168.61456 L 474.44683 168.61456 C 473.89455 168.61456 473.44683 168.16684 473.44683 167.61456 L 473.44683 143.61456 C 473.44683 143.06227 473.89455 142.61456 474.44683 142.61456 L 474.44683 142.61456 C 474.9991 142.61456 475.44683 143.06227 475.44683 143.61456 Z"/></g><g id="Graphic_794"><path fill="url(#Obj_Gradient_24)" d="M 406.9173 172.55667 L 390.8315 156.47088 C 390.44097 156.08036 390.44097 155.4472 390.8315 155.05667 L 406.9173 138.97088 C 407.3078 138.58036 407.94097 138.58036 408.3315 138.97088 L 424.4173 155.05667 C 424.8078 155.4472 424.8078 156.08036 424.4173 156.47088 L 408.3315 172.55667 C 407.94097 172.9472 407.3078 172.9472 406.9173 172.55667 Z"/><path stroke="#000" stroke-linecap="round" stroke-linejoin="round" stroke-width="3" d="M 406.9173 172.55667 L 390.8315 156.47088 C 390.44097 156.08036 390.44097 155.4472 390.8315 155.05667 L 406.9173 138.97088 C 407.3078 138.58036 407.94097 138.58036 408.3315 138.97088 L 424.4173 155.05667 C 424.8078 155.4472 424.8078 156.08036 424.4173 156.47088 L 408.3315 172.55667 C 407.94097 172.9472 407.3078 172.9472 406.9173 172.55667 Z"/></g><g id="Line_793"><line x1="218.649" x2="250" y1="155.56" y2="155.56" stroke="#000" stroke-dasharray="3 12" stroke-linecap="round" stroke-linejoin="round" stroke-width="3" marker-end="url(#Arrow_Marker)"/></g><g id="Group_783"><g id="Graphic_791"><path fill="#fff" d="M 18.636636 358.96717 L 623.2159 358.96717 C 623.7682 358.96717 624.2159 359.4149 624.2159 359.96717 L 624.2159 425.09346 C 624.2159 425.64574 623.7682 426.09346 623.2159 426.09346 L 18.636636 426.09346 C 18.084352 426.09346 17.636636 425.64574 17.636636 425.09346 L 17.636636 359.96717 C 17.636636 359.4149 18.084352 358.96717 18.636636 358.96717 Z"/><path stroke="#000" stroke-linecap="round" stroke-linejoin="round" stroke-width="3" d="M 18.636636 358.96717 L 623.2159 358.96717 C 623.7682 358.96717 624.2159 359.4149 624.2159 359.96717 L 624.2159 425.09346 C 624.2159 425.64574 623.7682 426.09346 623.2159 426.09346 L 18.636636 426.09346 C 18.084352 426.09346 17.636636 425.64574 17.636636 425.09346 L 17.636636 359.96717 C 17.636636 359.4149 18.084352 358.96717 18.636636 358.96717 Z"/><text fill="#000" transform="translate(22.636636 378.0303)"><tspan x="262.272" y="23" fill="#000" font-family="Helvetica" font-size="24" font-weight="700">merge</tspan></text></g></g><g id="Line_782"><line x1="17.637" x2="585.916" y1="516.439" y2="516.439" stroke="#000" stroke-linecap="round" stroke-linejoin="round" stroke-width="3" marker-end="url(#StickArrow_Marker_2)"/></g><g id="Graphic_781"><path fill="url(#Obj_Gradient_25)" d="M 239.66832 538.607 L 218.7071 517.6458 C 218.31658 517.25527 218.31658 516.6221 218.7071 516.2316 L 239.66832 495.27036 C 240.05885 494.87984 240.692 494.87984 241.08254 495.27036 L 262.04376 516.2316 C 262.43428 516.6221 262.43428 517.25527 262.04376 517.6458 L 241.08254 538.607 C 240.692 538.99753 240.05885 538.99753 239.66832 538.607 C 239.66832 538.607 239.66832 538.607 239.66832 538.607 Z"/><path stroke="#000" stroke-linecap="round" stroke-linejoin="round" stroke-width="3" d="M 239.66832 538.607 L 218.7071 517.6458 C 218.31658 517.25527 218.31658 516.6221 218.7071 516.2316 L 239.66832 495.27036 C 240.05885 494.87984 240.692 494.87984 241.08254 495.27036 L 262.04376 516.2316 C 262.43428 516.6221 262.43428 517.25527 262.04376 517.6458 L 241.08254 538.607 C 240.692 538.99753 240.05885 538.99753 239.66832 538.607 C 239.66832 538.607 239.66832 538.607 239.66832 538.607 Z"/></g><g id="Graphic_780"><path fill="url(#Obj_Gradient_26)" d="M 383.24544 538.7655 L 362.28423 517.8043 C 361.8937 517.41375 361.8937 516.7806 362.28423 516.39006 L 383.24544 495.42884 C 383.63597 495.0383 384.26913 495.0383 384.65966 495.42884 L 405.62087 516.39006 C 406.0114 516.7806 406.0114 517.41375 405.62087 517.8043 L 384.65966 538.7655 C 384.26913 539.156 383.63597 539.156 383.24544 538.7655 C 383.24544 538.7655 383.24544 538.7655 383.24544 538.7655 Z"/><path stroke="#000" stroke-linecap="round" stroke-linejoin="round" stroke-width="3" d="M 383.24544 538.7655 L 362.28423 517.8043 C 361.8937 517.41375 361.8937 516.7806 362.28423 516.39006 L 383.24544 495.42884 C 383.63597 495.0383 384.26913 495.0383 384.65966 495.42884 L 405.62087 516.39006 C 406.0114 516.7806 406.0114 517.41375 405.62087 517.8043 L 384.65966 538.7655 C 384.26913 539.156 383.63597 539.156 383.24544 538.7655 C 383.24544 538.7655 383.24544 538.7655 383.24544 538.7655 Z"/></g><g id="Graphic_779"><path fill="#000" d="M 536.3245 500.7271 L 536.3245 532.8334 C 536.3245 533.39933 535.8658 533.8581 535.29986 533.8581 L 535.29986 533.8581 C 534.73395 533.8581 534.2752 533.39933 534.2752 532.8334 L 534.2752 500.7271 C 534.2752 500.1612 534.73395 499.7024 535.29986 499.7024 L 535.29986 499.7024 C 535.8658 499.7024 536.3245 500.1612 536.3245 500.7271 Z"/><path stroke="#000" stroke-linecap="square" stroke-linejoin="round" stroke-width="1" d="M 536.3245 500.7271 L 536.3245 532.8334 C 536.3245 533.39933 535.8658 533.8581 535.29986 533.8581 L 535.29986 533.8581 C 534.73395 533.8581 534.2752 533.39933 534.2752 532.8334 L 534.2752 500.7271 C 534.2752 500.1612 534.73395 499.7024 535.29986 499.7024 L 535.29986 499.7024 C 535.8658 499.7024 536.3245 500.1612 536.3245 500.7271 Z"/></g><g id="Group_776"><g id="Graphic_778"><path fill="url(#Obj_Gradient_27)" d="M 92.66838 538.4487 L 71.70711 517.4874 C 71.31658 517.0969 71.31658 516.4637 71.70711 516.0732 C 71.70711 516.0732 71.70711 516.0732 71.70711 516.0732 L 92.66838 495.1119 C 93.0589 494.7214 93.69206 494.7214 94.08259 495.1119 L 115.04386 516.0732 C 115.43438 516.4637 115.43438 517.0969 115.04386 517.4874 C 115.04386 517.4874 115.04386 517.4874 115.04386 517.4874 L 94.08259 538.4487 C 93.69206 538.8392 93.0589 538.8392 92.66838 538.4487 Z"/><path stroke="#000" stroke-linecap="round" stroke-linejoin="round" stroke-width="3" d="M 92.66838 538.4487 L 71.70711 517.4874 C 71.31658 517.0969 71.31658 516.4637 71.70711 516.0732 C 71.70711 516.0732 71.70711 516.0732 71.70711 516.0732 L 92.66838 495.1119 C 93.0589 494.7214 93.69206 494.7214 94.08259 495.1119 L 115.04386 516.0732 C 115.43438 516.4637 115.43438 517.0969 115.04386 517.4874 C 115.04386 517.4874 115.04386 517.4874 115.04386 517.4874 L 94.08259 538.4487 C 93.69206 538.8392 93.0589 538.8392 92.66838 538.4487 Z"/></g><g id="Graphic_777"><path fill="url(#Obj_Gradient_28)" d="M 165.4194 538.4487 L 144.45814 517.4874 C 144.06761 517.0969 144.06761 516.4637 144.45814 516.0732 C 144.45814 516.0732 144.45814 516.0732 144.45814 516.0732 L 165.4194 495.1119 C 165.80993 494.7214 166.4431 494.7214 166.83362 495.1119 L 187.79489 516.0732 C 188.18541 516.4637 188.18541 517.0969 187.79489 517.4874 C 187.79489 517.4874 187.79489 517.4874 187.79489 517.4874 L 166.83362 538.4487 C 166.4431 538.8392 165.80993 538.8392 165.4194 538.4487 Z"/><path stroke="#000" stroke-linecap="round" stroke-linejoin="round" stroke-width="3" d="M 165.4194 538.4487 L 144.45814 517.4874 C 144.06761 517.0969 144.06761 516.4637 144.45814 516.0732 C 144.45814 516.0732 144.45814 516.0732 144.45814 516.0732 L 165.4194 495.1119 C 165.80993 494.7214 166.4431 494.7214 166.83362 495.1119 L 187.79489 516.0732 C 188.18541 516.4637 188.18541 517.0969 187.79489 517.4874 C 187.79489 517.4874 187.79489 517.4874 187.79489 517.4874 L 166.83362 538.4487 C 166.4431 538.8392 165.80993 538.8392 165.4194 538.4487 Z"/></g></g><g id="Graphic_775"><path fill="url(#Obj_Gradient_29)" d="M 312.4946 538.7655 L 291.53337 517.8043 C 291.14284 517.41375 291.14284 516.7806 291.53337 516.39006 L 312.4946 495.42884 C 312.8851 495.0383 313.51827 495.0383 313.9088 495.42884 L 334.87 516.39006 C 335.26054 516.7806 335.26054 517.41375 334.87 517.8043 L 313.9088 538.7655 C 313.51827 539.156 312.8851 539.156 312.4946 538.7655 C 312.4946 538.7655 312.4946 538.7655 312.4946 538.7655 Z"/><path stroke="#000" stroke-linecap="round" stroke-linejoin="round" stroke-width="3" d="M 312.4946 538.7655 L 291.53337 517.8043 C 291.14284 517.41375 291.14284 516.7806 291.53337 516.39006 L 312.4946 495.42884 C 312.8851 495.0383 313.51827 495.0383 313.9088 495.42884 L 334.87 516.39006 C 335.26054 516.7806 335.26054 517.41375 334.87 517.8043 L 313.9088 538.7655 C 313.51827 539.156 312.8851 539.156 312.4946 538.7655 C 312.4946 538.7655 312.4946 538.7655 312.4946 538.7655 Z"/></g><g id="Graphic_774"><path fill="url(#Obj_Gradient_30)" d="M 452.3643 537.9814 L 431.4031 517.0202 C 431.01255 516.62965 431.01255 515.9965 431.4031 515.60596 L 452.3643 494.64474 C 452.7548 494.2542 453.388 494.2542 453.7785 494.64474 L 474.7397 515.60596 C 475.13025 515.9965 475.13025 516.62965 474.7397 517.0202 L 453.7785 537.9814 C 453.388 538.3719 452.7548 538.3719 452.3643 537.9814 C 452.3643 537.9814 452.3643 537.9814 452.3643 537.9814 Z"/><path stroke="#000" stroke-linecap="round" stroke-linejoin="round" stroke-width="3" d="M 452.3643 537.9814 L 431.4031 517.0202 C 431.01255 516.62965 431.01255 515.9965 431.4031 515.60596 L 452.3643 494.64474 C 452.7548 494.2542 453.388 494.2542 453.7785 494.64474 L 474.7397 515.60596 C 475.13025 515.9965 475.13025 516.62965 474.7397 517.0202 L 453.7785 537.9814 C 453.388 538.3719 452.7548 538.3719 452.3643 537.9814 C 452.3643 537.9814 452.3643 537.9814 452.3643 537.9814 Z"/></g><g id="Line_773"><line x1="91.186" x2="92.158" y1="426.093" y2="466.377" stroke="#000" stroke-dasharray="3 12" stroke-linecap="round" stroke-linejoin="round" stroke-width="3" marker-end="url(#FilledArrow_Marker)"/></g><g id="Line_772"><line x1="164.119" x2="165.01" y1="426.093" y2="466.35" stroke="#000" stroke-dasharray="3 12" stroke-linecap="round" stroke-linejoin="round" stroke-width="3" marker-end="url(#FilledArrow_Marker)"/></g><g id="Line_771"><line x1="237.455" x2="238.759" y1="426.093" y2="466.675" stroke="#000" stroke-dasharray="3 12" stroke-linecap="round" stroke-linejoin="round" stroke-width="3" marker-end="url(#FilledArrow_Marker)"/></g><g id="Line_770"><line x1="311.137" x2="312.058" y1="426.093" y2="466.674" stroke="#000" stroke-dasharray="3 12" stroke-linecap="round" stroke-linejoin="round" stroke-width="3" marker-end="url(#FilledArrow_Marker)"/></g><g id="Line_769"><line x1="384.262" x2="384.124" y1="426.093" y2="466.539" stroke="#000" stroke-dasharray="3 12" stroke-linecap="round" stroke-linejoin="round" stroke-width="3" marker-end="url(#FilledArrow_Marker)"/></g><g id="Line_768"><line x1="451.835" x2="452.379" y1="426.093" y2="465.8" stroke="#000" stroke-dasharray="3 12" stroke-linecap="round" stroke-linejoin="round" stroke-width="3" marker-end="url(#FilledArrow_Marker)"/></g><g id="Line_767"><line x1="536.652" x2="535.966" y1="426.093" y2="472.137" stroke="#000" stroke-dasharray="3 12" stroke-linecap="round" stroke-linejoin="round" stroke-width="3" marker-end="url(#FilledArrow_Marker)"/></g><g id="Line_766"><line x1="17.637" x2="585.916" y1="273.704" y2="273.704" stroke="#000" stroke-linecap="round" stroke-linejoin="round" stroke-width="3" marker-end="url(#StickArrow_Marker_2)"/></g><g id="Graphic_765"><path fill="#000" d="M 536.3245 257.99198 L 536.3245 290.0983 C 536.3245 290.66422 535.8658 291.123 535.29986 291.123 L 535.29986 291.123 C 534.73395 291.123 534.2752 290.66422 534.2752 290.0983 L 534.2752 257.99198 C 534.2752 257.42607 534.73395 256.9673 535.29986 256.9673 L 535.29986 256.9673 C 535.8658 256.9673 536.3245 257.42607 536.3245 257.99198 Z"/><path stroke="#000" stroke-linecap="square" stroke-linejoin="round" stroke-width="1" d="M 536.3245 257.99198 L 536.3245 290.0983 C 536.3245 290.66422 535.8658 291.123 535.29986 291.123 L 535.29986 291.123 C 534.73395 291.123 534.2752 290.66422 534.2752 290.0983 L 534.2752 257.99198 C 534.2752 257.42607 534.73395 256.9673 535.29986 256.9673 L 535.29986 256.9673 C 535.8658 256.9673 536.3245 257.42607 536.3245 257.99198 Z"/></g><g id="Group_746"><g id="Graphic_764"><path fill="#fff" d="M 27.792893 259.62833 L 35.207107 252.21412 C 35.394643 252.02658 35.648997 251.92123 35.914214 251.92123 L 136.58779 251.92123 C 136.853 251.92123 137.10736 252.02658 137.2949 252.21412 L 144.7091 259.62833 C 144.89664 259.81587 145.002 260.07023 145.002 260.33544 L 145.002 288.258 C 145.002 288.52323 144.89664 288.7776 144.7091 288.96512 L 137.2949 296.37933 C 137.10736 296.56687 136.853 296.67223 136.58779 296.67223 L 35.914214 296.67223 C 35.648997 296.67223 35.394643 296.56687 35.207107 296.37933 L 27.792893 288.96512 C 27.605357 288.7776 27.5 288.52323 27.5 288.258 L 27.5 260.33544 C 27.5 260.07023 27.605357 259.81587 27.792893 259.62833 Z"/><path stroke="#000" stroke-linecap="round" stroke-linejoin="round" stroke-width="3" d="M 27.792893 259.62833 L 35.207107 252.21412 C 35.394643 252.02658 35.648997 251.92123 35.914214 251.92123 L 136.58779 251.92123 C 136.853 251.92123 137.10736 252.02658 137.2949 252.21412 L 144.7091 259.62833 C 144.89664 259.81587 145.002 260.07023 145.002 260.33544 L 145.002 288.258 C 145.002 288.52323 144.89664 288.7776 144.7091 288.96512 L 137.2949 296.37933 C 137.10736 296.56687 136.853 296.67223 136.58779 296.67223 L 35.914214 296.67223 C 35.648997 296.67223 35.394643 296.56687 35.207107 296.37933 L 27.792893 288.96512 C 27.605357 288.7776 27.5 288.52323 27.5 288.258 L 27.5 260.33544 C 27.5 260.07023 27.605357 259.81587 27.792893 259.62833 Z"/></g><g id="Group_759"><g id="Line_763"><line x1="33.251" x2="119.991" y1="274.148" y2="274.148" stroke="#000" stroke-linecap="round" stroke-linejoin="round" stroke-width="3" marker-end="url(#StickArrow_Marker)"/></g><g id="Graphic_762"><path fill="url(#Obj_Gradient_31)" d="M 52.192064 283.3157 L 43.880177 275.0038 C 43.48965 274.6133 43.48965 273.98013 43.880177 273.5896 C 43.880177 273.5896 43.880177 273.5896 43.880177 273.5896 L 52.192064 265.2777 C 52.58259 264.8872 53.215753 264.8872 53.60628 265.2777 L 61.918165 273.5896 C 62.30869 273.98013 62.30869 274.6133 61.918165 275.0038 C 61.918165 275.0038 61.918165 275.0038 61.918165 275.0038 L 53.60628 283.3157 C 53.215753 283.70623 52.58259 283.70623 52.192064 283.3157 Z"/><path stroke="#000" stroke-linecap="round" stroke-linejoin="round" stroke-width="3" d="M 52.192064 283.3157 L 43.880177 275.0038 C 43.48965 274.6133 43.48965 273.98013 43.880177 273.5896 C 43.880177 273.5896 43.880177 273.5896 43.880177 273.5896 L 52.192064 265.2777 C 52.58259 264.8872 53.215753 264.8872 53.60628 265.2777 L 61.918165 273.5896 C 62.30869 273.98013 62.30869 274.6133 61.918165 275.0038 C 61.918165 275.0038 61.918165 275.0038 61.918165 275.0038 L 53.60628 283.3157 C 53.215753 283.70623 52.58259 283.70623 52.192064 283.3157 Z"/></g><g id="Graphic_761"><path fill="#000" d="M 105.54858 267.31875 L 105.54858 281.27466 C 105.54858 281.52065 105.34916 281.72007 105.10318 281.72007 L 105.10318 281.72007 C 104.85719 281.72007 104.65777 281.52065 104.65777 281.27466 L 104.65777 267.31875 C 104.65777 267.07277 104.85719 266.87335 105.10318 266.87335 L 105.10318 266.87335 C 105.34916 266.87335 105.54858 267.07277 105.54858 267.31875 Z"/><path stroke="#000" stroke-linecap="square" stroke-linejoin="round" stroke-width="1" d="M 105.54858 267.31875 L 105.54858 281.27466 C 105.54858 281.52065 105.34916 281.72007 105.10318 281.72007 L 105.10318 281.72007 C 104.85719 281.72007 104.65777 281.52065 104.65777 281.27466 L 104.65777 267.31875 C 104.65777 267.07277 104.85719 266.87335 105.10318 266.87335 L 105.10318 266.87335 C 105.34916 266.87335 105.54858 267.07277 105.54858 267.31875 Z"/></g><g id="Graphic_760"><path fill="url(#Obj_Gradient_32)" d="M 83.81523 283.3157 L 75.50335 275.0038 C 75.11282 274.6133 75.11282 273.98013 75.50335 273.5896 C 75.50335 273.5896 75.50335 273.5896 75.50335 273.5896 L 83.81523 265.2777 C 84.20576 264.8872 84.83892 264.8872 85.22945 265.2777 L 93.54134 273.5896 C 93.93186 273.98013 93.93186 274.6133 93.54134 275.0038 C 93.54134 275.0038 93.54134 275.0038 93.54134 275.0038 L 85.22945 283.3157 C 84.83892 283.70623 84.20576 283.70623 83.81523 283.3157 Z"/><path stroke="#000" stroke-linecap="round" stroke-linejoin="round" stroke-width="3" d="M 83.81523 283.3157 L 75.50335 275.0038 C 75.11282 274.6133 75.11282 273.98013 75.50335 273.5896 C 75.50335 273.5896 75.50335 273.5896 75.50335 273.5896 L 83.81523 265.2777 C 84.20576 264.8872 84.83892 264.8872 85.22945 265.2777 L 93.54134 273.5896 C 93.93186 273.98013 93.93186 274.6133 93.54134 275.0038 C 93.54134 275.0038 93.54134 275.0038 93.54134 275.0038 L 85.22945 283.3157 C 84.83892 283.70623 84.20576 283.70623 83.81523 283.3157 Z"/></g></g><g id="Graphic_758"><path fill="#fff" d="M 173.29461 259.62833 L 180.70883 252.21412 C 180.89636 252.02658 181.15072 251.92123 181.41593 251.92123 L 282.0895 251.92123 C 282.35472 251.92123 282.60908 252.02658 282.7966 252.21412 L 290.21083 259.62833 C 290.39836 259.81587 290.50372 260.07023 290.50372 260.33544 L 290.50372 288.258 C 290.50372 288.52323 290.39836 288.7776 290.21083 288.96512 L 282.7966 296.37933 C 282.60908 296.56687 282.35472 296.67223 282.0895 296.67223 L 181.41593 296.67223 C 181.15072 296.67223 180.89636 296.56687 180.70883 296.37933 L 173.29461 288.96512 C 173.10708 288.7776 173.00172 288.52323 173.00172 288.258 L 173.00172 260.33544 C 173.00172 260.07023 173.10708 259.81587 173.29461 259.62833 Z"/><path stroke="#000" stroke-linecap="round" stroke-linejoin="round" stroke-width="3" d="M 173.29461 259.62833 L 180.70883 252.21412 C 180.89636 252.02658 181.15072 251.92123 181.41593 251.92123 L 282.0895 251.92123 C 282.35472 251.92123 282.60908 252.02658 282.7966 252.21412 L 290.21083 259.62833 C 290.39836 259.81587 290.50372 260.07023 290.50372 260.33544 L 290.50372 288.258 C 290.50372 288.52323 290.39836 288.7776 290.21083 288.96512 L 282.7966 296.37933 C 282.60908 296.56687 282.35472 296.67223 282.0895 296.67223 L 181.41593 296.67223 C 181.15072 296.67223 180.89636 296.56687 180.70883 296.37933 L 173.29461 288.96512 C 173.10708 288.7776 173.00172 288.52323 173.00172 288.258 L 173.00172 260.33544 C 173.00172 260.07023 173.10708 259.81587 173.29461 259.62833 Z"/></g><g id="Group_753"><g id="Line_757"><line x1="178.753" x2="265.493" y1="274.148" y2="274.148" stroke="#000" stroke-linecap="round" stroke-linejoin="round" stroke-width="3" marker-end="url(#StickArrow_Marker)"/></g><g id="Graphic_756"><path fill="url(#Obj_Gradient_33)" d="M 197.6938 283.3157 L 189.3819 275.0038 C 188.99138 274.6133 188.99138 273.98013 189.3819 273.5896 C 189.3819 273.5896 189.3819 273.5896 189.3819 273.5896 L 197.6938 265.2777 C 198.08432 264.8872 198.71748 264.8872 199.108 265.2777 L 207.4199 273.5896 C 207.81042 273.98013 207.81042 274.6133 207.4199 275.0038 C 207.4199 275.0038 207.4199 275.0038 207.4199 275.0038 L 199.108 283.3157 C 198.71748 283.70623 198.08432 283.70623 197.6938 283.3157 Z"/><path stroke="#000" stroke-linecap="round" stroke-linejoin="round" stroke-width="3" d="M 197.6938 283.3157 L 189.3819 275.0038 C 188.99138 274.6133 188.99138 273.98013 189.3819 273.5896 C 189.3819 273.5896 189.3819 273.5896 189.3819 273.5896 L 197.6938 265.2777 C 198.08432 264.8872 198.71748 264.8872 199.108 265.2777 L 207.4199 273.5896 C 207.81042 273.98013 207.81042 274.6133 207.4199 275.0038 C 207.4199 275.0038 207.4199 275.0038 207.4199 275.0038 L 199.108 283.3157 C 198.71748 283.70623 198.08432 283.70623 197.6938 283.3157 Z"/></g><g id="Graphic_755"><path fill="#000" d="M 251.0503 267.31875 L 251.0503 281.27466 C 251.0503 281.52065 250.85088 281.72007 250.6049 281.72007 L 250.6049 281.72007 C 250.3589 281.72007 250.1595 281.52065 250.1595 281.27466 L 250.1595 267.31875 C 250.1595 267.07277 250.3589 266.87335 250.6049 266.87335 L 250.6049 266.87335 C 250.85088 266.87335 251.0503 267.07277 251.0503 267.31875 Z"/><path stroke="#000" stroke-linecap="square" stroke-linejoin="round" stroke-width="1" d="M 251.0503 267.31875 L 251.0503 281.27466 C 251.0503 281.52065 250.85088 281.72007 250.6049 281.72007 L 250.6049 281.72007 C 250.3589 281.72007 250.1595 281.52065 250.1595 281.27466 L 250.1595 267.31875 C 250.1595 267.07277 250.3589 266.87335 250.6049 266.87335 L 250.6049 266.87335 C 250.85088 266.87335 251.0503 267.07277 251.0503 267.31875 Z"/></g><g id="Graphic_754"><path fill="url(#Obj_Gradient_34)" d="M 229.31696 283.3157 L 221.00508 275.0038 C 220.61455 274.6133 220.61455 273.98013 221.00508 273.5896 C 221.00508 273.5896 221.00508 273.5896 221.00508 273.5896 L 229.31696 265.2777 C 229.7075 264.8872 230.34065 264.8872 230.73118 265.2777 L 239.04307 273.5896 C 239.4336 273.98013 239.4336 274.6133 239.04307 275.0038 C 239.04307 275.0038 239.04307 275.0038 239.04307 275.0038 L 230.73118 283.3157 C 230.34065 283.70623 229.7075 283.70623 229.31696 283.3157 Z"/><path stroke="#000" stroke-linecap="round" stroke-linejoin="round" stroke-width="3" d="M 229.31696 283.3157 L 221.00508 275.0038 C 220.61455 274.6133 220.61455 273.98013 221.00508 273.5896 C 221.00508 273.5896 221.00508 273.5896 221.00508 273.5896 L 229.31696 265.2777 C 229.7075 264.8872 230.34065 264.8872 230.73118 265.2777 L 239.04307 273.5896 C 239.4336 273.98013 239.4336 274.6133 239.04307 275.0038 C 239.04307 275.0038 239.04307 275.0038 239.04307 275.0038 L 230.73118 283.3157 C 230.34065 283.70623 229.7075 283.70623 229.31696 283.3157 Z"/></g></g><g id="Graphic_752"><path fill="#fff" d="M 318.79633 259.62833 L 326.21055 252.21412 C 326.3981 252.02658 326.65244 251.92123 326.91765 251.92123 L 427.59123 251.92123 C 427.85644 251.92123 428.1108 252.02658 428.29833 252.21412 L 435.71255 259.62833 C 435.9001 259.81587 436.00544 260.07023 436.00544 260.33544 L 436.00544 288.258 C 436.00544 288.52323 435.9001 288.7776 435.71255 288.96512 L 428.29833 296.37933 C 428.1108 296.56687 427.85644 296.67223 427.59123 296.67223 L 326.91765 296.67223 C 326.65244 296.67223 326.3981 296.56687 326.21055 296.37933 L 318.79633 288.96512 C 318.6088 288.7776 318.50344 288.52323 318.50344 288.258 L 318.50344 260.33544 C 318.50344 260.07023 318.6088 259.81587 318.79633 259.62833 Z"/><path stroke="#000" stroke-linecap="round" stroke-linejoin="round" stroke-width="3" d="M 318.79633 259.62833 L 326.21055 252.21412 C 326.3981 252.02658 326.65244 251.92123 326.91765 251.92123 L 427.59123 251.92123 C 427.85644 251.92123 428.1108 252.02658 428.29833 252.21412 L 435.71255 259.62833 C 435.9001 259.81587 436.00544 260.07023 436.00544 260.33544 L 436.00544 288.258 C 436.00544 288.52323 435.9001 288.7776 435.71255 288.96512 L 428.29833 296.37933 C 428.1108 296.56687 427.85644 296.67223 427.59123 296.67223 L 326.91765 296.67223 C 326.65244 296.67223 326.3981 296.56687 326.21055 296.37933 L 318.79633 288.96512 C 318.6088 288.7776 318.50344 288.52323 318.50344 288.258 L 318.50344 260.33544 C 318.50344 260.07023 318.6088 259.81587 318.79633 259.62833 Z"/></g><g id="Group_747"><g id="Line_751"><line x1="324.254" x2="410.994" y1="274.148" y2="274.148" stroke="#000" stroke-linecap="round" stroke-linejoin="round" stroke-width="3" marker-end="url(#StickArrow_Marker)"/></g><g id="Graphic_750"><path fill="url(#Obj_Gradient_35)" d="M 343.19553 283.3157 L 334.88365 275.0038 C 334.49312 274.6133 334.49312 273.98013 334.88365 273.5896 L 343.19553 265.2777 C 343.58606 264.8872 344.21922 264.8872 344.60975 265.2777 L 352.92164 273.5896 C 353.31216 273.98013 353.31216 274.6133 352.92164 275.0038 L 344.60975 283.3157 C 344.21922 283.70623 343.58606 283.70623 343.19553 283.3157 Z"/><path stroke="#000" stroke-linecap="round" stroke-linejoin="round" stroke-width="3" d="M 343.19553 283.3157 L 334.88365 275.0038 C 334.49312 274.6133 334.49312 273.98013 334.88365 273.5896 L 343.19553 265.2777 C 343.58606 264.8872 344.21922 264.8872 344.60975 265.2777 L 352.92164 273.5896 C 353.31216 273.98013 353.31216 274.6133 352.92164 275.0038 L 344.60975 283.3157 C 344.21922 283.70623 343.58606 283.70623 343.19553 283.3157 Z"/></g><g id="Graphic_749"><path fill="#000" d="M 396.55204 267.31875 L 396.55204 281.27466 C 396.55204 281.52065 396.35262 281.72007 396.10664 281.72007 L 396.10664 281.72007 C 395.86065 281.72007 395.66123 281.52065 395.66123 281.27466 L 395.66123 267.31875 C 395.66123 267.07277 395.86065 266.87335 396.10664 266.87335 L 396.10664 266.87335 C 396.35262 266.87335 396.55204 267.07277 396.55204 267.31875 Z"/><path stroke="#000" stroke-linecap="square" stroke-linejoin="round" stroke-width="1" d="M 396.55204 267.31875 L 396.55204 281.27466 C 396.55204 281.52065 396.35262 281.72007 396.10664 281.72007 L 396.10664 281.72007 C 395.86065 281.72007 395.66123 281.52065 395.66123 281.27466 L 395.66123 267.31875 C 395.66123 267.07277 395.86065 266.87335 396.10664 266.87335 L 396.10664 266.87335 C 396.35262 266.87335 396.55204 267.07277 396.55204 267.31875 Z"/></g><g id="Graphic_748"><path fill="url(#Obj_Gradient_36)" d="M 374.8187 283.3157 L 366.5068 275.0038 C 366.1163 274.6133 366.1163 273.98013 366.5068 273.5896 L 374.8187 265.2777 C 375.20923 264.8872 375.8424 264.8872 376.2329 265.2777 L 384.5448 273.5896 C 384.93533 273.98013 384.93533 274.6133 384.5448 275.0038 L 376.2329 283.3157 C 375.8424 283.70623 375.20923 283.70623 374.8187 283.3157 Z"/><path stroke="#000" stroke-linecap="round" stroke-linejoin="round" stroke-width="3" d="M 374.8187 283.3157 L 366.5068 275.0038 C 366.1163 274.6133 366.1163 273.98013 366.5068 273.5896 L 374.8187 265.2777 C 375.20923 264.8872 375.8424 264.8872 376.2329 265.2777 L 384.5448 273.5896 C 384.93533 273.98013 384.93533 274.6133 384.5448 275.0038 L 376.2329 283.3157 C 375.8424 283.70623 375.20923 283.70623 374.8187 283.3157 Z"/></g></g></g><g id="Line_745"><line x1="59.875" x2="60.156" y1="189.123" y2="223.901" stroke="#000" stroke-dasharray="3 12" stroke-linecap="round" stroke-linejoin="round" stroke-width="3" marker-end="url(#FilledArrow_Marker)"/></g><g id="Line_744"><line x1="206.875" x2="206.875" y1="189.123" y2="223.9" stroke="#000" stroke-dasharray="3 12" stroke-linecap="round" stroke-linejoin="round" stroke-width="3" marker-end="url(#FilledArrow_Marker)"/></g><g id="Line_743"><line x1="353.7" x2="353.517" y1="189.123" y2="223.9" stroke="#000" stroke-dasharray="3 12" stroke-linecap="round" stroke-linejoin="round" stroke-width="3" marker-end="url(#FilledArrow_Marker)"/></g><g id="Line_742"><line x1="55.693" x2="71.549" y1="283.112" y2="333.134" stroke="#000" stroke-dasharray="3 12" stroke-linecap="round" stroke-linejoin="round" stroke-width="3" marker-end="url(#FilledArrow_Marker)"/></g><g id="Line_741"><line x1="89.246" x2="126.195" y1="281.379" y2="336.781" stroke="#000" stroke-dasharray="3 12" stroke-linecap="round" stroke-linejoin="round" stroke-width="3" marker-end="url(#FilledArrow_Marker)"/></g><g id="Line_740"><line x1="201.224" x2="217.308" y1="283.087" y2="333.165" stroke="#000" stroke-dasharray="3 12" stroke-linecap="round" stroke-linejoin="round" stroke-width="3" marker-end="url(#FilledArrow_Marker)"/></g><g id="Line_739"><line x1="234.803" x2="272.812" y1="281.328" y2="337.257" stroke="#000" stroke-dasharray="3 12" stroke-linecap="round" stroke-linejoin="round" stroke-width="3" marker-end="url(#FilledArrow_Marker)"/></g><g id="Line_738"><line x1="346.869" x2="364.11" y1="282.962" y2="333.328" stroke="#000" stroke-dasharray="3 12" stroke-linecap="round" stroke-linejoin="round" stroke-width="3" marker-end="url(#FilledArrow_Marker)"/></g><g id="Line_737"><line x1="380.137" x2="415.218" y1="281.484" y2="336.168" stroke="#000" stroke-dasharray="3 12" stroke-linecap="round" stroke-linejoin="round" stroke-width="3" marker-end="url(#FilledArrow_Marker)"/></g><g id="Line_736"><line x1="535.574" x2="536.204" y1="291.588" y2="331.87" stroke="#000" stroke-dasharray="3 12" stroke-linecap="round" stroke-linejoin="round" stroke-width="3" marker-end="url(#FilledArrow_Marker)"/></g></g><g id="Line_817"><line x1="535.3" x2="535.3" y1="189.123" y2="229.367" stroke="#000" stroke-dasharray="3 12" stroke-linecap="round" stroke-linejoin="round" stroke-width="3" marker-end="url(#FilledArrow_Marker)"/></g></g></g></svg>